# xmcd
#
# Track frame offsets: 
#        150
#        15171
#        28597
#        42203
#        55749
#        68495
#        81518
#        96024
#        110370
#        123856
#        137085
#        150446
#        162952
#        175738
#        190146
#        203357
#        215521
#        229670
#        243856
#        258520
#        271564
#        283465
#        296193
#
# Disc length: 4119 seconds
#
# Revision: 0
# Processed by: cddbd v1.5.2PL0 Copyright (c) Steve Scherf et al.
# Submitted via: ExactAudioCopyFreeDBPlugin 1.0
#
DISCID=33101517
DTITLE=Buddy Moss - Atlanta Blues
DYEAR=1900
DGENRE=Blues
TTITLE0=BYE BYE MAMA
TTITLE1=RED RIVER BLUES
TTITLE2=T.B.'S KILLING ME
TTITLE3=JEALOUS HEARTED MAN
TTITLE4=BACK TO MY USED TO BE - TAKE 2 
TTITLE5=CAN'T USE YOU NO MORE - TAKE 1
TTITLE6=BACHELOR'S BLUES
TTITLE7=BRAKE DOWN ENGINE NO, 2 - TAKE2
TTITLE8=SOME LONESOME DAY
TTITLE9=UNKIND WOMAN
TTITLE10=TRICKS AIN'T WALKING NO MORE
TTITLE11=OH LORDY MAMA
TTITLE12=JINX MAN BLUES
TTITLE13=TOO DOG GONE JEALOUS
TTITLE14=SOMEDAY BABY
TTITLE15=LOVE ME, BABY, LOVE ME
TTITLE16=MY BABY WON'T PAY ME NO MIND
TTITLE17=WORRYSOME WOMAN
TTITLE18=CAN'T USE YOU NO MORE
TTITLE19=YOU NEED A WOMAN
TTITLE20=JOY RAG
TTITLE21=LITTLE ANGEL BLUES
TTITLE22=I'M SITTING' HERE TONIGHT
EXTD=
EXTT0=
EXTT1=
EXTT2=
EXTT3=
EXTT4=
EXTT5=
EXTT6=
EXTT7=
EXTT8=
EXTT9=
EXTT10=
EXTT11=
EXTT12=
EXTT13=
EXTT14=
EXTT15=
EXTT16=
EXTT17=
EXTT18=
EXTT19=
EXTT20=
EXTT21=
EXTT22=
PLAYORDER=
